<?xml version="1.0" standalone="no"?>
<!DOCTYPE svg PUBLIC "-//W3C//DTD SVG 20010904//EN"
 "http://www.w3.org/TR/2001/REC-SVG-20010904/DTD/svg10.dtd">
<svg version="1.0" xmlns="http://www.w3.org/2000/svg"
 width="780.000000pt" height="780.000000pt" viewBox="0 0 780.000000 780.000000"
 preserveAspectRatio="xMidYMid meet">
<metadata>
Created by potrace 1.11, written by Peter Selinger 2001-2013
</metadata>
<g transform="translate(0.000000,780.000000) scale(0.100000,-0.100000)"
fill="#000000" stroke="none">
<path d="M3821 7735 c-18 -9 -61 -41 -96 -73 -94 -89 -100 -91 -425 -142 -900
-144 -1747 -649 -2304 -1375 -131 -171 -157 -191 -284 -231 -88 -27 -133 -60
-161 -117 -25 -52 -27 -113 -5 -199 23 -87 14 -153 -36 -283 -192 -503 -265
-853 -277 -1330 -6 -259 8 -460 47 -690 42 -246 123 -536 210 -751 72 -177 82
-240 54 -348 -44 -168 22 -276 193 -316 80 -18 133 -60 220 -173 609 -796
1416 -1276 2417 -1437 104 -17 209 -39 234 -50 25 -12 72 -45 104 -76 74 -71
135 -98 199 -91 63 8 102 29 169 93 86 81 107 89 395 134 350 56 704 168 1029
328 531 260 970 620 1323 1088 83 110 139 157 210 178 132 40 172 65 204 128
26 51 28 113 6 211 -23 102 -15 148 63 349 132 344 205 654 241 1021 15 163 7
625 -15 782 -47 333 -101 535 -264 980 -43 118 -47 159 -22 261 26 110 17 171
-35 231 -35 41 -75 62 -166 87 -72 20 -128 61 -187 138 -210 275 -446 521
-664 696 -501 399 -1101 667 -1708 762 -281 44 -322 58 -410 141 -30 29 -73
60 -95 70 -48 22 -118 24 -164 4z m489 -450 c1339 -172 2429 -1081 2838 -2365
50 -156 94 -351 124 -540 20 -128 22 -183 23 -475 0 -359 -7 -430 -65 -707
-111 -525 -343 -1013 -686 -1443 -110 -138 -346 -375 -484 -486 -456 -370
-969 -609 -1540 -718 -391 -74 -856 -74 -1250 0 -897 170 -1697 696 -2198
1446 -302 453 -481 927 -557 1478 -22 160 -30 522 -16 696 58 686 318 1338
747 1874 114 142 369 397 509 508 537 428 1177 684 1860 747 144 13 547 4 695
-15z"/>
<path d="M3834 6296 c-17 -8 -39 -25 -50 -38 -10 -13 -260 -441 -554 -951
l-535 -927 -476 0 -476 0 -34 -23 c-92 -61 -90 -181 4 -251 27 -20 42 -21 417
-26 l389 -5 -437 -755 c-430 -744 -437 -756 -437 -810 0 -65 26 -108 79 -134
31 -15 198 -16 1888 -16 l1853 0 39 23 c53 30 78 79 73 140 -5 57 -30 95 -78
119 -32 17 -129 18 -1594 18 l-1560 0 1219 710 c1217 709 1218 710 1285 716
l67 6 478 -828 c263 -456 488 -840 500 -853 45 -51 117 -64 176 -32 73 38 102
130 63 204 -9 18 -209 367 -445 775 -236 409 -428 745 -426 747 2 2 73 8 158
13 125 8 159 7 177 -4 72 -44 165 -38 228 17 82 72 61 193 -42 235 -48 20
-127 17 -173 -6 -38 -19 -47 -20 -212 -9 -95 6 -174 12 -176 13 -1 2 60 44
135 93 111 73 148 92 187 97 101 12 166 76 174 170 4 48 1 56 -27 88 -49 56
-136 68 -207 30 -21 -11 -88 -81 -95 -99 -4 -10 -379 -206 -384 -201 -1 2
-222 383 -490 848 -268 465 -497 856 -509 868 -46 51 -110 65 -172 38z m484
-1169 c380 -657 419 -728 402 -737 -26 -14 -1673 -14 -1668 0 4 13 842 1468
845 1466 1 0 190 -328 421 -729z m-152 -1054 c-9 -10 -1951 -1141 -1953 -1138
-2 1 439 769 618 1078 l40 67 651 0 c358 0 648 -3 644 -7z"/>
</g>
</svg>
